<?xml version="1.0" encoding="UTF-8"?> <svg xmlns="http://www.w3.org/2000/svg" width="1035.78" height="181.78" viewBox="0 0 1035.78 181.78"><path d="M55.93 2.15h21.39V92H55.93V54.67H21.39V92H0V2.15h21.39v36.07h34.54V2.15Zm55.68 17.47H90.48V1.14h21.13v18.48ZM111.23 92H90.86V28.73h20.37V92ZM143 45.05c1.69-5.82 4.28-10.25 7.78-13.29 3.5-3.04 7.95-4.56 13.35-4.56h1.27v19.36c-.84-.08-2.11-.13-3.8-.13-5.23 0-9.32 1.27-12.28 3.8-1.86 1.77-3.16 3.99-3.92 6.64-.76 2.66-1.14 5.76-1.14 9.3v25.82h-20.37V28.73H143v16.32Zm52.01-25.43h-21.13V1.14h21.13v18.48ZM194.63 92h-20.37V28.73h20.37V92Zm12.65 0V28.73h19.49v12.15c4.39-9.11 11.39-13.67 21.01-13.67 6.83 0 11.98 2.15 15.44 6.45 3.46 4.3 5.19 10.67 5.19 19.11V92h-20.25V55.55c0-4.39-.78-7.63-2.34-9.74-1.56-2.11-3.94-3.16-7.15-3.16-3.54 0-6.26 1.31-8.16 3.92-1.9 2.62-2.85 6.37-2.85 11.26V92h-20.37Zm78.65 20.82c-5.02-3.59-7.91-9.22-8.67-16.89H297c1.1 6.24 4.89 9.37 11.39 9.37 4.05-.08 7.02-1.25 8.92-3.48 1.9-2.24 2.85-5.76 2.85-10.57V80.37c-1.52 3.71-3.8 6.56-6.83 8.54-3.04 1.98-6.71 2.97-11.01 2.97-5.23 0-9.87-1.37-13.92-4.11-4.05-2.74-7.19-6.6-9.43-11.58-2.24-4.98-3.35-10.63-3.35-16.96s1.14-12.02 3.42-16.83 5.46-8.54 9.55-11.2c4.09-2.66 8.84-3.99 14.24-3.99 4.22 0 7.93.95 11.14 2.85 3.21 1.9 5.57 4.58 7.09 8.04l1.77-9.36h17.34v61.38c0 9.37-2.7 16.39-8.1 21.07-5.4 4.68-13.42 7.02-24.04 7.02-9.7 0-17.06-1.79-22.08-5.38ZM317 74.29c2.11-2.95 3.16-6.88 3.16-11.77v-5.69c0-4.64-1.06-8.39-3.16-11.26-2.11-2.87-4.85-4.3-8.23-4.3-3.88 0-6.9 1.58-9.05 4.75-2.15 3.16-3.23 7.74-3.23 13.73 0 5.65 1.1 10.23 3.29 13.73s5.1 5.25 8.73 5.25 6.37-1.48 8.48-4.43Zm78.96 14.1c-6.67-3.84-11.81-9.3-15.44-16.39-3.63-7.09-5.44-15.4-5.44-24.93s1.81-17.84 5.44-24.93c3.63-7.09 8.77-12.55 15.44-16.39 6.66-3.84 14.47-5.76 23.41-5.76s16.75 1.92 23.41 5.76 11.81 9.3 15.44 16.39c3.63 7.09 5.44 15.4 5.44 24.93s-1.81 17.84-5.44 24.93c-3.63 7.09-8.78 12.55-15.44 16.39-6.67 3.84-14.47 5.76-23.41 5.76s-16.75-1.92-23.41-5.76Zm39.8-18.98c3.92-5.36 5.88-12.8 5.88-22.33s-1.96-16.98-5.88-22.34c-3.92-5.36-9.39-8.04-16.39-8.04s-12.49 2.68-16.45 8.04c-3.97 5.36-5.95 12.8-5.95 22.34s1.98 16.87 5.95 22.27c3.96 5.4 9.45 8.1 16.45 8.1s12.46-2.68 16.39-8.04Zm39.8.32v-41h20.25v37.46c0 3.88.78 6.83 2.34 8.86 1.56 2.02 3.82 3.04 6.77 3.04 3.29 0 5.88-1.2 7.78-3.61 1.9-2.4 2.85-5.59 2.85-9.55v-36.2h20.37V92h-19.36V80.48c-1.52 4.05-4.05 7.24-7.59 9.55s-7.59 3.48-12.15 3.48c-14.17 0-21.26-7.93-21.26-23.79Zm92.12-24.68c1.69-5.82 4.28-10.25 7.78-13.29 3.5-3.04 7.95-4.56 13.35-4.56h1.27v19.36c-.84-.08-2.11-.13-3.8-.13-5.23 0-9.32 1.27-12.27 3.8-1.86 1.77-3.16 3.99-3.92 6.64-.76 2.66-1.14 5.76-1.14 9.3v25.82h-20.37V28.73h19.11v16.32Zm112.5-42.9h21.39V92h-21.39V54.67h-34.55V92h-21.39V2.15h21.39v36.07h34.55V2.15Zm95.8 62.77h-43.91c.08 4.3 1.46 7.72 4.11 10.25 2.66 2.53 6.14 3.8 10.44 3.8 6.24 0 10.84-2.95 13.79-8.86l14.93 6.83c-2.53 5.23-6.35 9.3-11.45 12.21s-10.95 4.37-17.53 4.37c-10.46 0-18.67-2.87-24.61-8.61-5.95-5.74-8.92-13.71-8.92-23.92 0-6.83 1.31-12.8 3.92-17.91 2.61-5.1 6.35-9.03 11.2-11.77s10.52-4.11 17.02-4.11c9.95 0 17.61 2.76 22.97 8.29 5.36 5.53 8.04 13.31 8.04 23.35v6.07Zm-19.62-11.39v-.51c0-4.47-1.01-7.89-3.04-10.25-2.02-2.36-4.94-3.54-8.73-3.54s-6.9 1.25-9.05 3.73c-2.15 2.49-3.31 6.01-3.48 10.57h24.3Zm49.73-8.48c1.69-5.82 4.28-10.25 7.78-13.29 3.5-3.04 7.95-4.56 13.35-4.56h1.27v19.36c-.84-.08-2.11-.13-3.8-.13-5.23 0-9.32 1.27-12.27 3.8-1.86 1.77-3.16 3.99-3.92 6.64-.76 2.66-1.14 5.76-1.14 9.3v25.82h-20.37V28.73h19.11v16.32Zm44.23 44.61c-4.94-2.57-8.82-6.35-11.64-11.33-2.83-4.98-4.24-11.01-4.24-18.1s1.41-13.1 4.24-18.03c2.83-4.94 6.71-8.67 11.64-11.2 4.94-2.53 10.57-3.8 16.89-3.8s11.98 1.27 16.96 3.8 8.88 6.26 11.71 11.2c2.83 4.93 4.24 10.95 4.24 18.03s-1.41 13.12-4.24 18.1c-2.83 4.98-6.73 8.75-11.71 11.33-4.98 2.57-10.63 3.86-16.96 3.86s-11.96-1.29-16.89-3.86Zm26.26-15.06c2.19-3.25 3.29-8.04 3.29-14.36s-1.1-11.18-3.29-14.3c-2.2-3.12-5.32-4.68-9.37-4.68s-7.15 1.56-9.3 4.68c-2.15 3.12-3.23 7.89-3.23 14.3s1.09 11.12 3.29 14.36c2.19 3.25 5.27 4.87 9.24 4.87s7.17-1.62 9.37-4.87Zm94.79-9.68h-43.91c.08 4.3 1.46 7.72 4.11 10.25 2.66 2.53 6.14 3.8 10.44 3.8 6.24 0 10.84-2.95 13.79-8.86l14.93 6.83c-2.53 5.23-6.35 9.3-11.45 12.21s-10.95 4.37-17.53 4.37c-10.46 0-18.67-2.87-24.61-8.61-5.95-5.74-8.92-13.71-8.92-23.92 0-6.83 1.31-12.8 3.92-17.91 2.61-5.1 6.35-9.03 11.2-11.77s10.52-4.11 17.02-4.11c9.95 0 17.61 2.76 22.97 8.29 5.36 5.53 8.04 13.31 8.04 23.35v6.07Zm-19.62-11.39v-.51c0-4.47-1.01-7.89-3.04-10.25-2.02-2.36-4.94-3.54-8.73-3.54s-6.9 1.25-9.05 3.73c-2.15 2.49-3.31 6.01-3.48 10.57h24.3Zm36.83 36.19c-5.4-2.53-9.62-6.16-12.66-10.88l11.77-8.6c4.56 6.33 11.18 9.49 19.87 9.49 3.37 0 5.93-.51 7.66-1.52 1.73-1.01 2.59-2.41 2.59-4.18s-.63-2.93-1.9-3.73c-1.27-.8-3.63-1.46-7.09-1.96l-9.87-1.77c-12.99-2.11-19.49-8.56-19.49-19.36 0-6.07 2.47-10.92 7.4-14.55 4.94-3.63 11.71-5.44 20.31-5.44 6.41 0 12.15 1.03 17.21 3.1 5.06 2.07 8.86 4.96 11.39 8.67l-10.5 9.36c-4.89-5.06-11.31-7.59-19.24-7.59-5.82 0-8.73 1.77-8.73 5.32 0 1.52.51 2.66 1.52 3.42 1.01.76 2.78 1.35 5.32 1.77l12.53 2.15c6.41 1.1 11.12 3.23 14.11 6.39 2.99 3.16 4.49 7.45 4.49 12.84 0 6.41-2.47 11.5-7.4 15.25-4.94 3.75-11.83 5.63-20.69 5.63-7 0-13.21-1.27-18.6-3.8ZM29.62 171.91H25.8l-3.58-9.87H7.58L4 171.91H.19l12.88-33.87h3.67l12.88 33.87ZM8.73 158.89h12.35l-5.06-13.88c-.32-.86-.68-1.96-1.1-3.29h-.1c-.29 1.08-.65 2.18-1.1 3.29l-5.01 13.88Zm36.63-20.85h3.67v21.94c0 2.93.78 5.23 2.34 6.92 1.56 1.69 3.77 2.53 6.63 2.53s5.08-.84 6.65-2.53c1.57-1.68 2.36-3.99 2.36-6.92v-21.94h3.72v22.18c0 3.82-1.11 6.85-3.34 9.11-2.23 2.26-5.36 3.39-9.4 3.39s-7.12-1.13-9.33-3.39c-2.21-2.26-3.31-5.29-3.31-9.11v-22.18Zm30.43 28.53h4.48v5.34h-4.48v-5.34Zm12.57 3.15c-2.27-2-3.54-4.66-3.79-7.97l3.72-.52c.29 2.48 1.23 4.51 2.84 6.08 1.61 1.57 3.92 2.36 6.94 2.36 2.35 0 4.3-.54 5.84-1.62s2.31-2.67 2.31-4.77-.56-3.57-1.69-4.51-2.85-1.63-5.18-2.08l-5.01-1c-5.57-1.08-8.35-4.1-8.35-9.06 0-1.88.47-3.52 1.41-4.94.94-1.42 2.27-2.51 4.01-3.29 1.73-.78 3.76-1.17 6.08-1.17 3.5 0 6.34.81 8.54 2.43 2.19 1.62 3.43 4.09 3.72 7.39l-3.72.71c-.48-5.06-3.36-7.58-8.63-7.58-2.29 0-4.13.55-5.51 1.65-1.38 1.1-2.07 2.58-2.07 4.46 0 1.69.48 3.03 1.45 4.03.97 1 2.49 1.72 4.56 2.17l5.01 1c2.89.57 5.15 1.57 6.77 3 1.62 1.43 2.43 3.56 2.43 6.39 0 1.88-.46 3.55-1.38 5.03-.92 1.48-2.3 2.65-4.13 3.51-1.83.86-4.03 1.29-6.61 1.29-4.1 0-7.29-1-9.56-3.01Zm25.5-3.15h4.48v5.34h-4.48v-5.34Zm27.24 3.79c-2.26-1.57-3.94-3.7-5.03-6.39-1.1-2.69-1.65-5.72-1.65-9.09s.59-6.57 1.76-9.23c1.18-2.66 2.9-4.72 5.18-6.2 2.27-1.48 5.03-2.22 8.28-2.22 3.94 0 7.04 1.07 9.28 3.22 2.24 2.15 3.58 5.05 4.03 8.71l-3.77.38c-.38-2.8-1.41-5.02-3.08-6.65s-3.89-2.46-6.65-2.46c-2.32 0-4.33.6-6.01 1.79-1.69 1.19-2.97 2.87-3.84 5.03-.88 2.16-1.31 4.69-1.31 7.58s.42 5.35 1.26 7.56c.84 2.21 2.11 3.94 3.82 5.2 1.7 1.26 3.76 1.88 6.18 1.88 2.61 0 4.76-.78 6.46-2.34 1.7-1.56 2.82-3.72 3.36-6.49l3.58.57c-.67 3.47-2.12 6.25-4.34 8.35-2.23 2.1-5.26 3.15-9.11 3.15-3.34 0-6.14-.79-8.4-2.36Zm27.42 1.55v-34.58h3.29v15.79c.7-1.84 1.74-3.24 3.12-4.2s3.06-1.43 5.03-1.43c2.61 0 4.59.81 5.94 2.43 1.35 1.62 2.03 4.02 2.03 7.2v14.79h-3.34v-14.6c0-2.29-.49-4.02-1.46-5.2-.97-1.18-2.39-1.76-4.27-1.76-2.16 0-3.88.8-5.15 2.41-1.27 1.61-1.91 3.81-1.91 6.61v12.54h-3.29Zm26.55-1.31c-1.45-1.26-2.17-2.92-2.17-4.98 0-1.15.25-2.17.74-3.08.49-.91 1.22-1.66 2.17-2.27 1.69-.99 4.29-1.7 7.82-2.15l5.29-.62v-.38c0-2.45-.45-4.21-1.36-5.27-.91-1.07-2.38-1.6-4.41-1.6-1.81 0-3.24.45-4.27 1.36-1.03.91-1.6 2.2-1.69 3.89h-3.58c.13-2.45 1.06-4.4 2.79-5.84 1.73-1.45 3.97-2.17 6.7-2.17 3.21 0 5.54.78 6.99 2.34 1.45 1.56 2.17 4.07 2.17 7.54v6.2c0 3.66.25 6.44.76 8.35h-3.48c-.22-1.27-.37-2.86-.43-4.77-.57 1.69-1.59 3-3.05 3.93-1.46.94-3.21 1.41-5.25 1.41-2.38 0-4.3-.63-5.75-1.88Zm11.88-3.15c1.35-1.51 2.03-3.49 2.03-5.94v-1.53l-6.77.95c-2.04.29-3.51.79-4.44 1.53-.92.73-1.38 1.75-1.38 3.05s.47 2.33 1.41 3.08 2.2 1.12 3.79 1.12c2.23 0 4.01-.75 5.37-2.27Zm12.56-19.39h3.1v4.63c.6-1.68 1.51-2.97 2.72-3.86 1.21-.89 2.65-1.34 4.34-1.34s3.16.44 4.34 1.31c1.18.88 2.02 2.14 2.53 3.79.7-1.69 1.68-2.96 2.93-3.82s2.73-1.29 4.41-1.29c2.32 0 4.13.77 5.41 2.31 1.29 1.54 1.93 3.71 1.93 6.51v15.6h-3.34v-15.31c0-2.04-.42-3.58-1.26-4.65-.84-1.06-2.09-1.6-3.74-1.6-1.81 0-3.24.63-4.29 1.88-1.05 1.26-1.57 2.98-1.57 5.18v14.5h-3.29v-15.5c0-1.94-.43-3.43-1.29-4.48s-2.08-1.57-3.67-1.57c-1.81 0-3.26.69-4.34 2.08-1.08 1.38-1.62 3.24-1.62 5.56v13.93h-3.29v-23.85Zm45.06 22.97a7.942 7.942 0 0 1-3.03-3.89l-.62 4.77h-2.53v-34.58h3.29v15.6c.64-1.65 1.65-2.97 3.05-3.96 1.4-.98 3.05-1.48 4.96-1.48s3.64.53 5.1 1.57c1.46 1.05 2.59 2.52 3.39 4.41.79 1.89 1.19 4.06 1.19 6.51s-.41 4.67-1.22 6.56c-.81 1.89-1.97 3.36-3.48 4.39-1.51 1.03-3.25 1.55-5.22 1.55-1.84 0-3.47-.48-4.89-1.45Zm9.35-4.08c1.29-1.72 1.93-4.04 1.93-6.96s-.63-5.25-1.88-6.96c-1.26-1.72-3.01-2.58-5.27-2.58s-3.88.82-5.15 2.46c-1.27 1.64-1.91 3.84-1.91 6.61v1.15c0 2.67.63 4.82 1.88 6.44s2.95 2.43 5.08 2.43c2.26 0 4.03-.86 5.32-2.58Zm29.5-6.11H286.1c.03 2.67.73 4.79 2.1 6.34 1.37 1.56 3.21 2.34 5.53 2.34 1.65 0 3.06-.45 4.22-1.34 1.16-.89 2-2.15 2.5-3.77l2.81 1.15c-.73 2.23-1.94 3.94-3.62 5.13-1.69 1.19-3.74 1.79-6.15 1.79-3.4 0-6.04-1.06-7.92-3.2-1.88-2.13-2.81-5.18-2.81-9.16s.95-7 2.84-9.25c1.89-2.26 4.48-3.39 7.75-3.39s5.69.95 7.44 2.84 2.62 4.63 2.62 8.23v2.29Zm-3.39-2.72v-.43c0-2.45-.59-4.32-1.76-5.6-1.18-1.29-2.83-1.93-4.96-1.93s-3.93.71-5.2 2.12c-1.27 1.42-1.94 3.36-2 5.84h13.93Zm12.36-4.24c.57-1.91 1.5-3.45 2.79-4.63 1.29-1.18 2.82-1.77 4.6-1.77.38 0 .68.02.91.05v3.24h-.38c-2.13 0-3.83.6-5.1 1.81a7.753 7.753 0 0 0-2.07 3.65c-.37 1.42-.55 3-.55 4.75v10.92h-3.29v-23.85h3.1v5.82Zm27.09 17.1c-1.65-1-2.93-2.45-3.84-4.34-.91-1.89-1.36-4.11-1.36-6.65s.45-4.76 1.36-6.65c.91-1.89 2.19-3.34 3.84-4.34s3.58-1.5 5.77-1.5 4.11.5 5.75 1.5c1.64 1 2.91 2.45 3.82 4.34.91 1.89 1.36 4.11 1.36 6.65s-.45 4.76-1.36 6.65c-.91 1.89-2.18 3.34-3.82 4.34-1.64 1-3.55 1.5-5.75 1.5s-4.12-.5-5.77-1.5Zm11.21-3.89c1.3-1.65 1.96-4.02 1.96-7.11s-.65-5.45-1.96-7.11-3.12-2.48-5.44-2.48-4.14.83-5.46 2.48-1.98 4.02-1.98 7.11.66 5.45 1.98 7.11 3.14 2.48 5.46 2.48 4.13-.83 5.44-2.48Zm21.66-19.03v2.77h-6.2v21.08h-3.29v-21.08h-4.48v-2.77h4.48v-3.96c0-2.16.6-3.88 1.79-5.15 1.19-1.27 2.82-1.91 4.89-1.91 1.11 0 2.05.11 2.81.33v2.86c-.89-.16-1.69-.24-2.38-.24-1.34 0-2.31.37-2.91 1.1s-.91 1.88-.91 3.43v3.53h6.2Zm20.51 22.3c-2.26-1.57-3.94-3.7-5.03-6.39-1.1-2.69-1.65-5.72-1.65-9.09s.59-6.57 1.77-9.23c1.18-2.66 2.9-4.72 5.17-6.2s5.03-2.22 8.28-2.22c3.94 0 7.04 1.07 9.28 3.22 2.24 2.15 3.58 5.05 4.03 8.71l-3.77.38c-.38-2.8-1.41-5.02-3.08-6.65-1.67-1.64-3.89-2.46-6.65-2.46-2.32 0-4.33.6-6.01 1.79s-2.97 2.87-3.84 5.03c-.88 2.16-1.31 4.69-1.31 7.58s.42 5.35 1.26 7.56 2.11 3.94 3.82 5.2c1.7 1.26 3.76 1.88 6.18 1.88 2.61 0 4.76-.78 6.46-2.34 1.7-1.56 2.82-3.72 3.36-6.49l3.58.57c-.67 3.47-2.12 6.25-4.34 8.35-2.23 2.1-5.26 3.15-9.11 3.15-3.34 0-6.14-.79-8.4-2.36Zm30.76.62c-1.65-1-2.93-2.45-3.84-4.34-.91-1.89-1.36-4.11-1.36-6.65s.45-4.76 1.36-6.65c.91-1.89 2.19-3.34 3.84-4.34s3.58-1.5 5.77-1.5 4.11.5 5.75 1.5c1.64 1 2.91 2.45 3.82 4.34.91 1.89 1.36 4.11 1.36 6.65s-.45 4.76-1.36 6.65c-.91 1.89-2.18 3.34-3.82 4.34-1.64 1-3.55 1.5-5.75 1.5s-4.12-.5-5.77-1.5Zm11.21-3.89c1.3-1.65 1.96-4.02 1.96-7.11s-.65-5.45-1.96-7.11-3.12-2.48-5.44-2.48-4.14.83-5.46 2.48-1.98 4.02-1.98 7.11.66 5.45 1.98 7.11 3.14 2.48 5.46 2.48 4.13-.83 5.44-2.48Zm11.12-19.03h3.1v4.63c.6-1.68 1.51-2.97 2.72-3.86 1.21-.89 2.65-1.34 4.34-1.34s3.16.44 4.34 1.31 2.02 2.14 2.53 3.79c.7-1.69 1.68-2.96 2.93-3.82 1.26-.86 2.73-1.29 4.41-1.29 2.32 0 4.13.77 5.41 2.31 1.29 1.54 1.93 3.71 1.93 6.51v15.6h-3.34v-15.31c0-2.04-.42-3.58-1.26-4.65-.84-1.06-2.09-1.6-3.74-1.6-1.81 0-3.24.63-4.29 1.88-1.05 1.26-1.57 2.98-1.57 5.18v14.5h-3.29v-15.5c0-1.94-.43-3.43-1.29-4.48-.86-1.05-2.08-1.57-3.67-1.57-1.81 0-3.26.69-4.34 2.08-1.08 1.38-1.62 3.24-1.62 5.56v13.93h-3.29v-23.85Zm38.87 0h3.1v4.63c.6-1.68 1.51-2.97 2.72-3.86 1.21-.89 2.65-1.34 4.34-1.34s3.16.44 4.34 1.31 2.02 2.14 2.53 3.79c.7-1.69 1.68-2.96 2.93-3.82 1.26-.86 2.73-1.29 4.41-1.29 2.32 0 4.13.77 5.41 2.31 1.29 1.54 1.93 3.71 1.93 6.51v15.6h-3.34v-15.31c0-2.04-.42-3.58-1.26-4.65-.84-1.06-2.09-1.6-3.74-1.6-1.81 0-3.24.63-4.29 1.88-1.05 1.26-1.57 2.98-1.57 5.18v14.5h-3.29v-15.5c0-1.94-.43-3.43-1.29-4.48-.86-1.05-2.08-1.57-3.67-1.57-1.81 0-3.26.69-4.34 2.08-1.08 1.38-1.62 3.24-1.62 5.56v13.93h-3.29v-23.85Zm57.29 12.78h-17.32c.03 2.67.73 4.79 2.1 6.34 1.37 1.56 3.21 2.34 5.53 2.34 1.65 0 3.06-.45 4.22-1.34 1.16-.89 2-2.15 2.5-3.77l2.81 1.15c-.73 2.23-1.94 3.94-3.62 5.13s-3.74 1.79-6.15 1.79c-3.4 0-6.04-1.06-7.92-3.2s-2.81-5.18-2.81-9.16.95-7 2.84-9.25c1.89-2.26 4.48-3.39 7.75-3.39s5.69.95 7.44 2.84 2.62 4.63 2.62 8.23v2.29Zm-3.39-2.72v-.43c0-2.45-.59-4.32-1.77-5.6s-2.83-1.93-4.96-1.93-3.93.71-5.2 2.12c-1.27 1.42-1.94 3.36-2 5.84h13.93Zm12.36-4.24c.57-1.91 1.5-3.45 2.79-4.63s2.82-1.77 4.6-1.77c.38 0 .68.02.91.05v3.24H559c-2.13 0-3.83.6-5.1 1.81a7.855 7.855 0 0 0-2.08 3.65c-.37 1.42-.55 3-.55 4.75v10.92h-3.29v-23.85h3.1v5.82Zm15.33 17.08c-1.64-1.02-2.89-2.46-3.77-4.34-.88-1.88-1.31-4.09-1.31-6.63 0-3.88.97-6.93 2.91-9.16 1.94-2.22 4.58-3.34 7.92-3.34 2.73 0 4.95.76 6.65 2.29 1.7 1.53 2.69 3.64 2.98 6.34l-3.39.38c-.22-1.97-.89-3.48-2-4.53-1.11-1.05-2.58-1.57-4.39-1.57-2.23 0-3.98.84-5.25 2.53s-1.91 4.02-1.91 7.01.64 5.42 1.93 7.11c1.29 1.69 3.08 2.53 5.37 2.53 1.78 0 3.22-.52 4.32-1.57s1.8-2.56 2.12-4.53l3.2.48c-.45 2.7-1.51 4.8-3.2 6.3-1.69 1.5-3.83 2.24-6.44 2.24-2.19 0-4.11-.51-5.75-1.53Zm39.48-10.12h-17.32c.03 2.67.73 4.79 2.1 6.34 1.37 1.56 3.21 2.34 5.53 2.34 1.65 0 3.06-.45 4.22-1.34 1.16-.89 2-2.15 2.5-3.77l2.81 1.15c-.73 2.23-1.94 3.94-3.62 5.13s-3.74 1.79-6.15 1.79c-3.4 0-6.04-1.06-7.92-3.2s-2.81-5.18-2.81-9.16.95-7 2.84-9.25c1.89-2.26 4.48-3.39 7.75-3.39s5.69.95 7.44 2.84 2.62 4.63 2.62 8.23v2.29Zm-3.39-2.72v-.43c0-2.45-.59-4.32-1.77-5.6s-2.83-1.93-4.96-1.93-3.93.71-5.2 2.12c-1.27 1.42-1.94 3.36-2 5.84h13.93Zm41.83-20.08v3.15h-16.98v11.78h16.17v3.15h-16.17v15.79h-3.67v-33.87h20.65Zm8.3 32.94c-1.65-1-2.93-2.45-3.84-4.34-.91-1.89-1.36-4.11-1.36-6.65s.45-4.76 1.36-6.65c.91-1.89 2.19-3.34 3.84-4.34s3.58-1.5 5.77-1.5 4.11.5 5.75 1.5c1.64 1 2.91 2.45 3.82 4.34.91 1.89 1.36 4.11 1.36 6.65s-.45 4.76-1.36 6.65c-.91 1.89-2.18 3.34-3.82 4.34-1.64 1-3.55 1.5-5.75 1.5s-4.12-.5-5.77-1.5Zm11.21-3.89c1.3-1.65 1.96-4.02 1.96-7.11s-.65-5.45-1.96-7.11-3.12-2.48-5.44-2.48-4.14.83-5.46 2.48-1.98 4.02-1.98 7.11.66 5.45 1.98 7.11 3.14 2.48 5.46 2.48 4.13-.83 5.44-2.48Zm12.33 2.98c-1.29-1.61-1.93-3.9-1.93-6.89v-15.12h3.29v14.79c0 2.26.48 3.95 1.46 5.08.97 1.13 2.3 1.69 3.98 1.69 2.13 0 3.82-.8 5.08-2.41 1.26-1.61 1.88-3.65 1.88-6.13v-13.02h3.34v23.85h-3.15V167c-.57 1.62-1.56 2.94-2.96 3.96s-2.99 1.53-4.77 1.53c-2.86 0-4.94-.8-6.22-2.41Zm24.97 1.84v-23.85h3.15v5.25c1.43-3.88 4.15-5.82 8.16-5.82 2.67 0 4.69.82 6.06 2.46s2.05 4.05 2.05 7.23v14.74h-3.34v-14.55c0-2.32-.49-4.07-1.48-5.25-.99-1.18-2.42-1.76-4.29-1.76-2.16 0-3.87.8-5.13 2.41-1.26 1.61-1.88 3.81-1.88 6.61v12.54h-3.29Zm28.96-1c-1.5-1.05-2.65-2.52-3.46-4.41-.81-1.89-1.22-4.06-1.22-6.51s.43-4.57 1.29-6.46c.86-1.89 2.06-3.37 3.6-4.44 1.54-1.07 3.32-1.6 5.32-1.6 3.59 0 6.09 1.64 7.49 4.91v-15.07h3.34v34.58h-3.15v-5.06c-.7 1.78-1.75 3.16-3.15 4.15-1.4.99-3.04 1.48-4.91 1.48s-3.66-.52-5.15-1.57Zm11.14-3.89c1.29-1.67 1.93-3.84 1.93-6.51v-1c0-2.73-.63-4.93-1.88-6.58-1.26-1.65-2.98-2.48-5.18-2.48s-3.98.84-5.25 2.53-1.91 4.02-1.91 7.01.63 5.29 1.88 6.99c1.26 1.7 3 2.55 5.22 2.55s3.89-.83 5.18-2.5Zm13.07 3.58c-1.45-1.26-2.17-2.92-2.17-4.98 0-1.15.25-2.17.74-3.08s1.22-1.66 2.17-2.27c1.68-.99 4.29-1.7 7.82-2.15l5.29-.62v-.38c0-2.45-.45-4.21-1.36-5.27s-2.38-1.6-4.41-1.6c-1.81 0-3.24.45-4.27 1.36s-1.6 2.2-1.69 3.89h-3.58c.13-2.45 1.06-4.4 2.79-5.84s3.97-2.17 6.7-2.17c3.21 0 5.54.78 6.99 2.34 1.45 1.56 2.17 4.07 2.17 7.54v6.2c0 3.66.25 6.44.76 8.35h-3.48c-.22-1.27-.37-2.86-.43-4.77-.57 1.69-1.59 3-3.05 3.93-1.46.94-3.21 1.41-5.25 1.41-2.39 0-4.3-.63-5.75-1.88Zm11.88-3.15c1.35-1.51 2.03-3.49 2.03-5.94v-1.53l-6.77.95c-2.04.29-3.51.79-4.44 1.53-.92.73-1.38 1.75-1.38 3.05s.47 2.33 1.41 3.08 2.2 1.12 3.79 1.12c2.23 0 4.01-.75 5.37-2.27Zm8.89-16.62v-2.77h4.39v-6.3l3.34-1.43v7.73h6.15v2.77h-6.15v14.31c0 1.4.31 2.43.93 3.08.62.65 1.55.98 2.79.98.83 0 1.64-.1 2.43-.29v3c-.99.29-2.08.43-3.29.43-2.19 0-3.78-.61-4.75-1.84-.97-1.22-1.45-2.96-1.45-5.22v-14.45h-4.39Zm22.51-7.06h-3.77v-5.25h3.77v5.25Zm-.24 28.14h-3.29v-23.85h3.29v23.85Zm10.83-.93c-1.65-1-2.93-2.45-3.84-4.34-.91-1.89-1.36-4.11-1.36-6.65s.45-4.76 1.36-6.65c.91-1.89 2.19-3.34 3.84-4.34s3.58-1.5 5.77-1.5 4.11.5 5.75 1.5c1.64 1 2.91 2.45 3.82 4.34.91 1.89 1.36 4.11 1.36 6.65s-.45 4.76-1.36 6.65c-.91 1.89-2.18 3.34-3.82 4.34-1.64 1-3.55 1.5-5.75 1.5s-4.12-.5-5.77-1.5Zm11.21-3.89c1.3-1.65 1.96-4.02 1.96-7.11s-.65-5.45-1.96-7.11-3.12-2.48-5.44-2.48-4.14.83-5.46 2.48-1.98 4.02-1.98 7.11.66 5.45 1.98 7.11 3.14 2.48 5.46 2.48 4.13-.83 5.44-2.48Zm11.12 4.82v-23.85h3.15v5.25c1.43-3.88 4.15-5.82 8.16-5.82 2.67 0 4.69.82 6.06 2.46s2.05 4.05 2.05 7.23v14.74h-3.34v-14.55c0-2.32-.49-4.07-1.48-5.25-.99-1.18-2.42-1.76-4.29-1.76-2.16 0-3.87.8-5.13 2.41-1.26 1.61-1.88 3.81-1.88 6.61v12.54h-3.29Zm50.23-33.87c3.4 0 6.11.88 8.13 2.62 2.02 1.75 3.03 4.1 3.03 7.06s-1.01 5.43-3.03 7.23c-2.02 1.8-4.73 2.69-8.13 2.69h-8.11v14.26h-3.67v-33.87h11.78Zm-.33 16.46c2.32 0 4.17-.61 5.53-1.84 1.37-1.22 2.05-2.87 2.05-4.94s-.68-3.59-2.05-4.77c-1.37-1.18-3.21-1.76-5.53-1.76h-7.78v13.31h7.78Zm19.45-.62c.57-1.91 1.5-3.45 2.79-4.63s2.82-1.77 4.6-1.77c.38 0 .68.02.91.05v3.24h-.38c-2.13 0-3.83.6-5.1 1.81a7.855 7.855 0 0 0-2.08 3.65c-.37 1.42-.55 3-.55 4.75v10.92h-3.29v-23.85h3.1v5.82Zm15.46 17.1c-1.65-1-2.93-2.45-3.84-4.34-.91-1.89-1.36-4.11-1.36-6.65s.45-4.76 1.36-6.65c.91-1.89 2.19-3.34 3.84-4.34s3.58-1.5 5.77-1.5 4.11.5 5.75 1.5c1.64 1 2.91 2.45 3.82 4.34.91 1.89 1.36 4.11 1.36 6.65s-.45 4.76-1.36 6.65c-.91 1.89-2.18 3.34-3.82 4.34-1.64 1-3.55 1.5-5.75 1.5s-4.12-.5-5.77-1.5Zm11.21-3.89c1.3-1.65 1.96-4.02 1.96-7.11s-.65-5.45-1.96-7.11-3.12-2.48-5.44-2.48-4.14.83-5.46 2.48-1.98 4.02-1.98 7.11.66 5.45 1.98 7.11 3.14 2.48 5.46 2.48 4.13-.83 5.44-2.48Zm12.83 12.86c-1.69-1.22-2.69-3.05-3-5.46h3.43c.32 1.59 1.03 2.73 2.12 3.43 1.1.7 2.58 1.05 4.46 1.05 2.26 0 3.94-.62 5.06-1.86 1.11-1.24 1.67-3.13 1.67-5.68v-4.67c-.6 1.78-1.57 3.17-2.91 4.15-1.34.99-2.94 1.48-4.82 1.48s-3.67-.53-5.17-1.6c-1.51-1.06-2.69-2.55-3.53-4.46-.84-1.91-1.26-4.1-1.26-6.58s.44-4.51 1.31-6.37c.87-1.86 2.08-3.31 3.62-4.34 1.54-1.03 3.28-1.55 5.22-1.55 1.81 0 3.38.45 4.7 1.34 1.32.89 2.3 2.16 2.93 3.82l.76-4.58h2.48v23.37c0 6.9-3.39 10.35-10.16 10.35-2.93 0-5.23-.61-6.92-1.84Zm10.35-11.59c1.08-.78 1.92-1.87 2.53-3.27.6-1.4.91-2.99.91-4.77v-1.19c0-2.61-.64-4.71-1.93-6.3-1.29-1.59-3-2.38-5.13-2.38s-3.94.83-5.22 2.5c-1.29 1.67-1.93 3.94-1.93 6.8s.65 5.33 1.96 7.11c1.3 1.78 3.02 2.67 5.15 2.67 1.37 0 2.59-.39 3.67-1.17Zm17.65-14.48c.57-1.91 1.5-3.45 2.79-4.63s2.82-1.77 4.6-1.77c.38 0 .68.02.91.05v3.24h-.38c-2.13 0-3.83.6-5.1 1.81a7.855 7.855 0 0 0-2.08 3.65c-.37 1.42-.55 3-.55 4.75v10.92h-3.29v-23.85h3.1v5.82Zm12.23 16.72c-1.45-1.26-2.17-2.92-2.17-4.98 0-1.15.25-2.17.74-3.08s1.22-1.66 2.17-2.27c1.68-.99 4.29-1.7 7.82-2.15l5.29-.62v-.38c0-2.45-.45-4.21-1.36-5.27s-2.38-1.6-4.41-1.6c-1.81 0-3.24.45-4.27 1.36s-1.6 2.2-1.69 3.89h-3.58c.13-2.45 1.06-4.4 2.79-5.84s3.97-2.17 6.7-2.17c3.21 0 5.54.78 6.99 2.34 1.45 1.56 2.17 4.07 2.17 7.54v6.2c0 3.66.25 6.44.76 8.35h-3.48c-.22-1.27-.37-2.86-.43-4.77-.57 1.69-1.59 3-3.05 3.93-1.46.94-3.21 1.41-5.25 1.41-2.39 0-4.3-.63-5.75-1.88Zm11.88-3.15c1.35-1.51 2.03-3.49 2.03-5.94v-1.53l-6.77.95c-2.04.29-3.51.79-4.44 1.53-.92.73-1.38 1.75-1.38 3.05s.47 2.33 1.41 3.08 2.2 1.12 3.79 1.12c2.23 0 4.01-.75 5.37-2.27Zm12.57-19.39h3.1v4.63c.6-1.68 1.51-2.97 2.72-3.86 1.21-.89 2.65-1.34 4.34-1.34s3.16.44 4.34 1.31 2.02 2.14 2.53 3.79c.7-1.69 1.68-2.96 2.93-3.82 1.26-.86 2.73-1.29 4.41-1.29 2.32 0 4.13.77 5.41 2.31 1.29 1.54 1.93 3.71 1.93 6.51v15.6h-3.34v-15.31c0-2.04-.42-3.58-1.26-4.65-.84-1.06-2.09-1.6-3.74-1.6-1.81 0-3.24.63-4.29 1.88-1.05 1.26-1.57 2.98-1.57 5.18v14.5h-3.29v-15.5c0-1.94-.43-3.43-1.29-4.48-.86-1.05-2.08-1.57-3.67-1.57-1.81 0-3.26.69-4.34 2.08-1.08 1.38-1.62 3.24-1.62 5.56v13.93h-3.29v-23.85Z" style="fill:#001f5c"></path></svg> 